<?xml version="1.0" encoding="utf-8"?>
<!-- Generator: Adobe Illustrator 16.0.0, SVG Export Plug-In . SVG Version: 6.00 Build 0)  -->
<!DOCTYPE svg PUBLIC "-//W3C//DTD SVG 1.1//EN" "http://www.w3.org/Graphics/SVG/1.1/DTD/svg11.dtd">
<svg version="1.1" id="Layer_1" xmlns="http://www.w3.org/2000/svg" xmlns:xlink="http://www.w3.org/1999/xlink" x="0px" y="0px"
	 width="512px" height="512px" viewBox="0 0 512 512" enable-background="new 0 0 512 512" xml:space="preserve">
<path d="M415.395,235.691c-13.164,0-25.698-2.695-37.085-7.559l12.857,63.765c0,4.498-3.647,8.144-8.145,8.144
	c-4.498,0-8.143-3.646-8.143-8.144l-14.962-74.204c-22.713-16.501-37.79-42.867-38.94-72.807l-181.259-10.114l-12.326-56.313
	c-0.71-5.884-4.904-10.686-10.464-12.288c-0.131-0.039-0.265-0.067-0.397-0.102c-0.288-0.074-0.576-0.15-0.871-0.207
	c-0.38-0.076-0.766-0.13-1.153-0.176c-0.055-0.006-0.109,0.188-0.165,0.183c-0.66-0.07-1.329,0.131-2.006,0.131H35.109
	c-8.084,0-14.638,6.416-14.638,14.5S27.025,95,35.109,95h65.905l8.365,38.146l-4.479-0.283c-8.567,0-15.512,6.928-15.512,15.495
	l40.172,178.987c0,8.568,6.945,15.654,15.512,15.654h37.825l-5.223,29.47c-18.452,2.117-32.784,17.704-32.784,36.724
	c0,20.461,16.589,37.44,37.052,37.44c18.756,0,34.246-13.634,36.702-31.634h104.077c2.456,18,17.948,31.595,36.703,31.595
	c20.463,0,37.052-16.802,37.052-37.265s-16.589-36.914-37.052-36.914c-17.14,0-31.556,11.584-35.787,27.584H217.73
	c-2.883-11-10.492-19.684-20.468-24.223L203.025,343h198.77c8.567,0,15.513-7.095,15.513-15.663l18.085-93.673
	C428.945,235.052,422.257,235.691,415.395,235.691z M191.063,291.897c0,4.498-3.646,8.144-8.144,8.144
	c-4.497,0-8.144-3.646-8.144-8.144l-18.297-90.745c0-4.497,3.646-8.143,8.144-8.143h0.001c4.497,0,8.144,3.646,8.144,8.143
	L191.063,291.897L191.063,291.897z M234.108,300.041c-4.498,0-8.143-3.646-8.143-8.144l-18.298-90.745
	c0-4.497,3.646-8.143,8.144-8.143h0.001c4.496,0,8.144,3.646,8.144,8.143l18.297,90.745
	C242.253,296.396,238.605,300.041,234.108,300.041z M282.195,300.041c-4.497,0-8.145-3.646-8.145-8.144l-18.297-90.745
	c0-4.497,3.647-8.143,8.145-8.143s8.145,3.646,8.145,8.143l18.297,90.745C290.34,296.396,286.692,300.041,282.195,300.041z
	 M332.608,300.041c-4.497,0-8.144-3.646-8.144-8.144l-18.298-90.745c0-4.497,3.647-8.143,8.145-8.143
	c4.498,0,8.145,3.646,8.145,8.143l18.297,90.745C340.753,296.396,337.106,300.041,332.608,300.041z"/>
<path d="M415.835,65.604c-41.805,0-75.694,33.891-75.694,75.694s33.891,75.694,75.694,75.694s75.693-33.891,75.693-75.694
	S457.641,65.604,415.835,65.604z M460.307,156.892h-88c-8.837,0-16-7.164-16-16s7.163-16,16-16h88c8.837,0,16,7.164,16,16
	S469.144,156.892,460.307,156.892z"/>
</svg>
